<svg width="3923" height="1137" xmlns="http://www.w3.org/2000/svg" xmlns:xlink="http://www.w3.org/1999/xlink" xml:space="preserve" overflow="hidden"><g transform="translate(-238 -2667)"><g><rect x="455" y="3047" width="3490" height="394" fill="#A3CAFF" fill-opacity="1"/><text fill="#FFFFFF" fill-opacity="1" font-family="Apple SD Gothic Neo,Apple SD Gothic Neo_MSFontService,sans-serif" font-style="normal" font-variant="normal" font-weight="800" font-stretch="normal" font-size="440" text-anchor="start" direction="ltr" writing-mode="lr-tb" unicode-bidi="normal" text-decoration="none" transform="matrix(1 0 0 1 504.48 3405)">애플</text><text fill="#FFFFFF" fill-opacity="1" font-family="Apple SD Gothic Neo,Apple SD Gothic Neo_MSFontService,sans-serif" font-style="normal" font-variant="normal" font-weight="800" font-stretch="normal" font-size="440" text-anchor="start" direction="ltr" writing-mode="lr-tb" unicode-bidi="normal" text-decoration="none" transform="matrix(1 0 0 1 1381.04 3405)">산돌</text><text fill="#FFFFFF" fill-opacity="1" font-family="Apple SD Gothic Neo,Apple SD Gothic Neo_MSFontService,sans-serif" font-style="normal" font-variant="normal" font-weight="800" font-stretch="normal" font-size="440" text-anchor="start" direction="ltr" writing-mode="lr-tb" unicode-bidi="normal" text-decoration="none" transform="matrix(1 0 0 1 2257.6 3405)">고딕</text><text fill="#FFFFFF" fill-opacity="1" font-family="Apple SD Gothic Neo,Apple SD Gothic Neo_MSFontService,sans-serif" font-style="normal" font-variant="normal" font-weight="800" font-stretch="normal" font-size="440" text-anchor="start" direction="ltr" writing-mode="lr-tb" unicode-bidi="normal" text-decoration="none" transform="matrix(1 0 0 1 3134.17 3405)">네오</text><path d="M409 3001.5C409 2976.37 429.371 2956 454.5 2956 479.629 2956 500 2976.37 500 3001.5 500 3026.63 479.629 3047 454.5 3047 429.371 3047 409 3026.63 409 3001.5Z" fill="#4285F4" fill-rule="evenodd" fill-opacity="1"/><rect x="0" y="0" width="19.9999" height="396" fill="#4285F4" fill-opacity="1" transform="matrix(-1 0 0 1 465 3045)"/><path d="M3900 3001.5C3900 2976.37 3920.37 2956 3945.5 2956 3970.63 2956 3991 2976.37 3991 3001.5 3991 3026.63 3970.63 3047 3945.5 3047 3920.37 3047 3900 3026.63 3900 3001.5Z" fill="#4285F4" fill-rule="evenodd" fill-opacity="1"/><rect x="0" y="0" width="19.9999" height="396" fill="#4285F4" fill-opacity="1" transform="matrix(-1 0 0 1 3955 3045)"/><path d="M0 61.0002 61.9999 0 124 61.0002Z" fill="#FFFFFF" fill-rule="evenodd" fill-opacity="1" transform="matrix(1 0 0 -1 2138 2920)"/><path d="M1745 2730.9C1745 2697.27 1772.27 2670 1805.9 2670L2594.1 2670C2627.73 2670 2655 2697.27 2655 2730.9L2655 2799.1C2655 2832.73 2627.73 2860 2594.1 2860L1805.9 2860C1772.27 2860 1745 2832.73 1745 2799.1Z" fill="#FFFFFF" fill-rule="evenodd" fill-opacity="1"/><text fill="#000000" fill-opacity="1" font-family="Apple SD Gothic Neo,Apple SD Gothic Neo_MSFontService,sans-serif" font-style="normal" font-variant="normal" font-weight="200" font-stretch="normal" font-size="83" text-anchor="start" direction="ltr" writing-mode="lr-tb" unicode-bidi="normal" text-decoration="none" transform="matrix(1 0 0 1 1832.47 2796)">Apple SD Gothic Neo</text></g></g></svg>