<svg width="3923" height="1137" xmlns="http://www.w3.org/2000/svg" xmlns:xlink="http://www.w3.org/1999/xlink" xml:space="preserve" overflow="hidden"><g transform="translate(-238 -224)"><g><rect x="455" y="605" width="3490" height="394" fill="#A3CAFF" fill-opacity="1"/><text fill="#000000" fill-opacity="1" font-family="Apple SD Gothic Neo,Apple SD Gothic Neo_MSFontService,sans-serif" font-style="normal" font-variant="normal" font-weight="800" font-stretch="normal" font-size="440" text-anchor="start" direction="ltr" writing-mode="lr-tb" unicode-bidi="normal" text-decoration="none" transform="matrix(1 0 0 1 504.48 963)">애플</text><text fill="#000000" fill-opacity="1" font-family="Apple SD Gothic Neo,Apple SD Gothic Neo_MSFontService,sans-serif" font-style="normal" font-variant="normal" font-weight="800" font-stretch="normal" font-size="440" text-anchor="start" direction="ltr" writing-mode="lr-tb" unicode-bidi="normal" text-decoration="none" transform="matrix(1 0 0 1 1381.04 963)">산돌</text><text fill="#000000" fill-opacity="1" font-family="Apple SD Gothic Neo,Apple SD Gothic Neo_MSFontService,sans-serif" font-style="normal" font-variant="normal" font-weight="800" font-stretch="normal" font-size="440" text-anchor="start" direction="ltr" writing-mode="lr-tb" unicode-bidi="normal" text-decoration="none" transform="matrix(1 0 0 1 2257.6 963)">고딕</text><text fill="#000000" fill-opacity="1" font-family="Apple SD Gothic Neo,Apple SD Gothic Neo_MSFontService,sans-serif" font-style="normal" font-variant="normal" font-weight="800" font-stretch="normal" font-size="440" text-anchor="start" direction="ltr" writing-mode="lr-tb" unicode-bidi="normal" text-decoration="none" transform="matrix(1 0 0 1 3134.17 963)">네오</text><path d="M409 559.5C409 534.371 429.371 514 454.5 514 479.629 514 500 534.371 500 559.5 500 584.629 479.629 605 454.5 605 429.371 605 409 584.629 409 559.5Z" fill="#4285F4" fill-rule="evenodd" fill-opacity="1"/><rect x="0" y="0" width="19.9999" height="396" fill="#4285F4" fill-opacity="1" transform="matrix(-1 0 0 1 465 603)"/><path d="M3900 559.5C3900 534.371 3920.37 514 3945.5 514 3970.63 514 3991 534.371 3991 559.5 3991 584.629 3970.63 605 3945.5 605 3920.37 605 3900 584.629 3900 559.5Z" fill="#4285F4" fill-rule="evenodd" fill-opacity="1"/><rect x="0" y="0" width="19.9999" height="396" fill="#4285F4" fill-opacity="1" transform="matrix(-1 0 0 1 3955 603)"/><path d="M0 61.0002 61.9999 0 124 61.0002Z" fill="#000000" fill-rule="evenodd" fill-opacity="1" transform="matrix(1 0 0 -1 2138 478)"/><path d="M1745 288.899C1745 255.265 1772.27 228 1805.9 228L2594.1 228C2627.73 228 2655 255.265 2655 288.899L2655 357.101C2655 390.735 2627.73 418 2594.1 418L1805.9 418C1772.27 418 1745 390.735 1745 357.101Z" fill="#000000" fill-rule="evenodd" fill-opacity="1"/><text fill="#FFFFFF" fill-opacity="1" font-family="Apple SD Gothic Neo,Apple SD Gothic Neo_MSFontService,sans-serif" font-style="normal" font-variant="normal" font-weight="200" font-stretch="normal" font-size="83" text-anchor="start" direction="ltr" writing-mode="lr-tb" unicode-bidi="normal" text-decoration="none" transform="matrix(1 0 0 1 1832.47 354)">Apple SD Gothic Neo</text></g></g></svg>