<svg width="4437" height="1576" xmlns="http://www.w3.org/2000/svg" xmlns:xlink="http://www.w3.org/1999/xlink" xml:space="preserve" overflow="hidden"><g transform="translate(-45 -449)"><g><path d="M612.037 715.262C599.852 715.262 589.51 718.709 581.013 725.603 572.515 732.498 566.102 742.198 561.773 754.704 557.444 767.21 555.279 781.961 555.279 798.956 555.279 815.951 557.444 830.702 561.773 843.208 566.102 855.714 572.515 865.414 581.013 872.308 589.51 879.203 599.852 882.65 612.037 882.65 624.222 882.65 634.564 879.203 643.062 872.308 651.559 865.414 657.973 855.714 662.302 843.208 666.631 830.702 668.795 815.951 668.795 798.956 668.795 781.961 666.631 767.21 662.302 754.704 657.973 742.198 651.559 732.498 643.062 725.603 634.564 718.709 624.222 715.262 612.037 715.262ZM612.037 657.542C629.032 657.542 645.226 660.749 660.618 667.162 676.01 673.575 689.799 682.794 701.984 694.819 714.169 706.844 723.789 721.595 730.844 739.071 737.899 756.548 741.426 776.509 741.426 798.956 741.426 828.778 735.333 854.191 723.148 875.194 710.963 896.198 695.01 912.311 675.289 923.535 655.568 934.758 634.484 940.37 612.037 940.37 589.59 940.37 568.507 934.758 548.786 923.535 529.065 912.311 513.111 896.198 500.926 875.194 488.741 854.191 482.648 828.778 482.648 798.956 482.648 769.134 488.741 743.721 500.926 722.717 513.111 701.714 529.065 685.6 548.786 674.377 568.507 663.154 589.59 657.542 612.037 657.542ZM144.891 577.215 217.522 577.215 320.936 767.21 357.011 844.17 359.417 844.17C357.492 825.571 355.408 805.209 353.164 783.083 350.919 760.957 349.797 739.793 349.797 719.591L349.797 577.215 417.137 577.215 417.137 933.636 344.505 933.636 242.053 743.16 205.978 666.681 203.573 666.681C205.176 685.921 207.1 706.283 209.345 727.768 211.589 749.253 212.712 770.256 212.712 790.779L212.712 933.636 144.891 933.636Z" stroke="#000000" stroke-width="3" stroke-linecap="butt" stroke-linejoin="round" stroke-miterlimit="10" stroke-opacity="1" fill="#4285F4" fill-rule="evenodd" fill-opacity="1"/><text fill="#000000" fill-opacity="0" font-family="Arial,Arial_MSFontService,sans-serif" font-size="363.155" direction="ltr" writing-mode="lr-tb" x="144.891" y="894.975">No</text><path d="M1104.17 715.262C1091.99 715.262 1081.65 718.709 1073.15 725.603 1064.65 732.498 1058.24 742.198 1053.91 754.704 1049.58 767.21 1047.41 781.961 1047.41 798.956 1047.41 815.951 1049.58 830.702 1053.91 843.208 1058.24 855.714 1064.65 865.414 1073.15 872.308 1081.65 879.203 1091.99 882.65 1104.17 882.65 1116.36 882.65 1126.7 879.203 1135.2 872.308 1143.69 865.414 1150.11 855.714 1154.44 843.208 1158.77 830.702 1160.93 815.951 1160.93 798.956 1160.93 781.961 1158.77 767.21 1154.44 754.704 1150.11 742.198 1143.69 732.498 1135.2 725.603 1126.7 718.709 1116.36 715.262 1104.17 715.262ZM1104.17 657.542C1121.17 657.542 1137.36 660.749 1152.75 667.162 1168.15 673.575 1181.93 682.794 1194.12 694.819 1206.3 706.844 1215.92 721.595 1222.98 739.071 1230.03 756.548 1233.56 776.509 1233.56 798.956 1233.56 828.778 1227.47 854.191 1215.28 875.194 1203.1 896.198 1187.15 912.311 1167.42 923.535 1147.7 934.758 1126.62 940.37 1104.17 940.37 1081.73 940.37 1060.64 934.758 1040.92 923.535 1021.2 912.311 1005.25 896.198 993.061 875.194 980.876 854.191 974.783 828.778 974.784 798.956 974.783 769.134 980.876 743.721 993.061 722.717 1005.25 701.714 1021.2 685.6 1040.92 674.377 1060.64 663.154 1081.73 657.542 1104.17 657.542ZM822.963 591.645 881.164 591.645 881.164 664.276 948.023 664.276 948.023 720.072 881.164 720.072 881.164 839.36C881.164 854.752 884.371 866.135 890.784 873.511 897.198 880.886 906.337 884.574 918.201 884.574 922.691 884.574 927.34 883.932 932.15 882.65 936.96 881.367 941.129 880.084 944.656 878.802L956.681 930.269C949.306 932.513 940.888 934.758 931.429 937.003 921.969 939.247 911.307 940.37 899.442 940.37 878.278 940.37 861.123 936.121 847.975 927.623 834.828 919.126 825.368 907.341 819.596 892.27 813.824 877.198 810.938 859.722 810.938 839.841L810.938 720.072 772.939 720.072 772.939 667.643 814.786 664.276Z" stroke="#000000" stroke-width="3" stroke-linecap="butt" stroke-linejoin="round" stroke-miterlimit="10" stroke-opacity="1" fill="#EA4335" fill-rule="evenodd" fill-opacity="1"/><text fill="#000000" fill-opacity="0" font-family="Arial,Arial_MSFontService,sans-serif" font-size="348.725" direction="ltr" writing-mode="lr-tb" x="772.939" y="896.779">to</text><path d="M1844.02 804.728C1822.22 807.293 1804.9 810.981 1792.07 815.791 1779.25 820.601 1770.11 826.293 1764.66 832.866 1759.21 839.44 1756.48 846.735 1756.48 854.752 1756.48 865.334 1759.77 873.03 1766.34 877.84 1772.91 882.65 1781.49 885.055 1792.07 885.055 1802.01 885.055 1811.07 882.73 1819.25 878.08 1827.43 873.431 1835.68 866.937 1844.02 858.6ZM2138.77 657.542C2167.95 657.542 2189.12 667.082 2202.26 686.161 2215.41 705.241 2221.98 731.776 2221.98 765.767L2221.98 933.636 2151.28 933.636 2151.28 774.425C2151.28 753.581 2148.31 738.991 2142.38 730.654 2136.45 722.316 2126.75 718.148 2113.28 718.148 2102.38 718.148 2092.84 720.713 2084.66 725.844 2076.48 730.974 2067.42 738.51 2057.48 748.451L2057.48 933.636 1986.77 933.636 1986.77 664.276 2044.49 664.276 2049.79 699.87 2051.23 699.87C2063.09 688.326 2076.08 678.385 2090.19 670.048 2104.3 661.711 2120.49 657.542 2138.77 657.542ZM1811.31 657.542C1834.08 657.542 1853.16 662.031 1868.55 671.01 1883.95 679.989 1895.49 693.296 1903.19 710.933 1910.88 728.57 1914.73 750.375 1914.73 776.349L1914.73 933.636 1857.01 933.636 1852.2 904.776 1849.79 904.776C1838.25 915.037 1825.74 923.535 1812.28 930.269 1798.81 937.003 1784.22 940.37 1768.51 940.37 1752.79 940.37 1738.92 936.923 1726.9 930.028 1714.87 923.134 1705.57 913.594 1699 901.409 1692.43 889.223 1689.14 875.435 1689.14 860.043 1689.14 831.503 1701.49 809.297 1726.18 793.424 1750.87 777.551 1790.15 766.729 1844.02 760.957 1843.7 751.978 1842.1 744.042 1839.21 737.147 1836.33 730.253 1831.6 724.721 1825.02 720.553 1818.45 716.384 1809.55 714.3 1798.33 714.3 1785.82 714.3 1773.48 716.705 1761.29 721.515 1749.1 726.325 1736.76 732.578 1724.25 740.274L1699.24 693.136C1709.82 686.402 1721.05 680.469 1732.91 675.339 1744.78 670.208 1757.28 665.959 1770.43 662.592 1783.58 659.225 1797.2 657.542 1811.31 657.542ZM1522.17 570.962C1543.33 570.962 1563.7 574.97 1583.26 582.987 1602.82 591.004 1619.81 602.387 1634.24 617.138L1598.17 661.39C1586.94 652.091 1575.24 644.875 1563.05 639.745 1550.87 634.614 1537.24 632.049 1522.17 632.049 1506.78 632.049 1494.51 635.336 1485.37 641.909 1476.23 648.483 1471.66 657.702 1471.66 669.567 1471.66 677.904 1474.23 684.799 1479.36 690.25 1484.49 695.701 1491.22 700.431 1499.56 704.439 1507.9 708.448 1517.04 712.536 1526.98 716.705L1573.64 735.464C1588.07 741.236 1600.65 748.451 1611.39 757.109 1622.14 765.767 1630.47 776.188 1636.41 788.374 1642.34 800.559 1645.3 815.31 1645.3 832.626 1645.3 851.866 1640.09 869.663 1629.67 886.017 1619.25 902.371 1604.34 915.518 1584.94 925.459 1565.54 935.399 1542.05 940.37 1514.47 940.37 1490.74 940.37 1467.5 935.88 1444.73 926.902 1421.96 917.923 1401.92 905.096 1384.6 888.422L1425.49 839.36C1437.99 851.224 1452.34 860.764 1468.54 867.979 1484.73 875.194 1500.52 878.802 1515.92 878.802 1534.51 878.802 1548.62 875.114 1558.24 867.739 1567.86 860.363 1572.67 850.423 1572.67 837.917 1572.67 828.938 1570.35 821.803 1565.7 816.512 1561.05 811.221 1554.72 806.492 1546.7 802.323 1538.68 798.154 1529.38 793.985 1518.8 789.817L1471.66 769.134C1459.8 764.324 1448.34 757.83 1437.27 749.653 1426.21 741.476 1417.07 731.135 1409.86 718.629 1402.64 706.123 1399.03 691.212 1399.03 673.896 1399.03 654.335 1404.32 636.859 1414.91 621.467 1425.49 606.075 1440.08 593.809 1458.68 584.67 1477.28 575.531 1498.44 570.962 1522.17 570.962Z" stroke="#000000" stroke-width="3" stroke-linecap="butt" stroke-linejoin="round" stroke-miterlimit="10" stroke-opacity="1" fill="#FBBC05" fill-rule="evenodd" fill-opacity="1"/><text fill="#000000" fill-opacity="0" font-family="Arial,Arial_MSFontService,sans-serif" font-size="369.408" direction="ltr" writing-mode="lr-tb" x="1384.6" y="894.194">San</text><path d="M2384.95 657.542C2404.51 657.542 2421.91 660.909 2437.14 667.643 2452.37 674.377 2465.44 682.073 2476.34 690.731L2444.59 733.54C2434.97 726.485 2425.44 720.873 2415.98 716.705 2406.52 712.536 2396.82 710.452 2386.87 710.452 2374.37 710.452 2365.23 712.857 2359.46 717.667 2353.69 722.477 2350.8 728.73 2350.8 736.426 2350.8 742.839 2353.2 748.21 2358.01 752.539 2362.82 756.868 2369.4 760.636 2377.74 763.843 2386.07 767.049 2394.89 770.417 2404.19 773.944 2413.17 777.151 2422.07 780.918 2430.89 785.247 2439.7 789.576 2447.8 794.787 2455.18 800.88 2462.55 806.972 2468.4 814.428 2472.73 823.246 2477.06 832.065 2479.23 842.727 2479.23 855.233 2479.23 870.945 2475.14 885.295 2466.96 898.282 2458.78 911.269 2446.76 921.531 2430.89 929.066 2415.01 936.602 2395.37 940.37 2371.96 940.37 2354.01 940.37 2335.81 936.842 2317.37 929.788 2298.93 922.733 2282.98 913.754 2269.51 902.852L2301.74 858.119C2313.6 867.097 2325.39 874.232 2337.09 879.523 2348.8 884.814 2361.06 887.46 2373.89 887.46 2387.36 887.46 2397.22 884.814 2403.47 879.523 2409.72 874.232 2412.85 867.418 2412.85 859.081 2412.85 852.347 2410.12 846.655 2404.67 842.005 2399.22 837.356 2392.17 833.187 2383.51 829.499 2374.85 825.812 2365.87 822.204 2356.57 818.677 2345.35 814.188 2334.21 808.736 2323.14 802.323 2312.08 795.909 2302.86 787.652 2295.48 777.551 2288.11 767.45 2284.42 754.864 2284.42 739.793 2284.42 723.76 2288.59 709.57 2296.93 697.224 2305.27 684.879 2316.89 675.179 2331.8 668.124 2346.71 661.069 2364.43 657.542 2384.95 657.542Z" stroke="#000000" stroke-width="3" stroke-linecap="butt" stroke-linejoin="round" stroke-miterlimit="10" stroke-opacity="1" fill="#4285F4" fill-rule="evenodd" fill-opacity="1"/><text fill="#000000" fill-opacity="0" font-family="Arial,Arial_MSFontService,sans-serif" font-size="282.828" direction="ltr" writing-mode="lr-tb" x="2269.51" y="905.016">s</text><path d="M3075.58 715.262C3063.39 715.262 3053.05 718.709 3044.55 725.603 3036.06 732.498 3029.64 742.198 3025.31 754.704 3020.99 767.21 3018.82 781.961 3018.82 798.956 3018.82 815.951 3020.99 830.702 3025.31 843.208 3029.64 855.714 3036.06 865.414 3044.55 872.308 3053.05 879.203 3063.39 882.65 3075.58 882.65 3087.76 882.65 3098.11 879.203 3106.6 872.308 3115.1 865.414 3121.51 855.714 3125.84 843.208 3130.17 830.702 3132.34 815.951 3132.34 798.956 3132.34 781.961 3130.17 767.21 3125.84 754.704 3121.51 742.198 3115.1 732.498 3106.6 725.603 3098.11 718.709 3087.76 715.262 3075.58 715.262ZM3405.31 657.542C3413.01 657.542 3419.18 658.103 3423.83 659.225 3428.48 660.348 3432.73 661.711 3436.58 663.314L3425.03 724.401C3419.9 723.118 3415.33 722.076 3411.32 721.274 3407.32 720.473 3402.27 720.072 3396.17 720.072 3385.91 720.072 3375.09 724.08 3363.71 732.097 3352.32 740.114 3342.78 753.742 3335.09 772.982L3335.09 933.636 3264.38 933.636 3264.38 664.276 3322.1 664.276 3327.39 711.895 3328.83 711.895C3338.77 694.258 3350.48 680.79 3363.95 671.491 3377.41 662.192 3391.2 657.542 3405.31 657.542ZM3075.58 657.542C3092.57 657.542 3108.77 660.749 3124.16 667.162 3139.55 673.575 3153.34 682.794 3165.53 694.819 3177.71 706.844 3187.33 721.595 3194.39 739.071 3201.44 756.548 3204.97 776.509 3204.97 798.956 3204.97 828.778 3198.88 854.191 3186.69 875.194 3174.5 896.198 3158.55 912.311 3138.83 923.535 3119.11 934.758 3098.03 940.37 3075.58 940.37 3053.13 940.37 3032.05 934.758 3012.33 923.535 2992.61 912.311 2976.65 896.198 2964.47 875.194 2952.28 854.191 2946.19 828.778 2946.19 798.956 2946.19 769.134 2952.28 743.721 2964.47 722.717 2976.65 701.714 2992.61 685.6 3012.33 674.377 3032.05 663.154 3053.13 657.542 3075.58 657.542ZM2648.54 577.215 2719.72 577.215 2719.72 732.097 2721.17 732.097 2839.01 577.215 2917.42 577.215 2808.71 717.667 2936.66 933.636 2858.73 933.636 2766.38 773.463 2719.72 833.588 2719.72 933.636 2648.54 933.636Z" stroke="#000000" stroke-width="3" stroke-linecap="butt" stroke-linejoin="round" stroke-miterlimit="10" stroke-opacity="1" fill="#34A853" fill-rule="evenodd" fill-opacity="1"/><text fill="#000000" fill-opacity="0" font-family="Arial,Arial_MSFontService,sans-serif" font-size="363.155" direction="ltr" writing-mode="lr-tb" x="2648.54" y="894.975">Kor</text><path d="M3885.9 804.728C3864.09 807.293 3846.78 810.981 3833.95 815.791 3821.12 820.601 3811.98 826.293 3806.53 832.866 3801.08 839.44 3798.35 846.735 3798.35 854.752 3798.35 865.334 3801.64 873.03 3808.22 877.84 3814.79 882.65 3823.37 885.055 3833.95 885.055 3843.89 885.055 3852.95 882.73 3861.13 878.08 3869.3 873.431 3877.56 866.937 3885.9 858.6ZM3584.31 712.376C3575.01 712.376 3566.19 714.54 3557.85 718.869 3549.51 723.198 3542.46 729.772 3536.69 738.59 3530.92 747.409 3527.07 758.391 3525.14 771.539L3635.29 771.539C3635.29 753.581 3631.2 739.232 3623.03 728.489 3614.85 717.747 3601.94 712.376 3584.31 712.376ZM4180.65 657.542C4209.83 657.542 4230.99 667.082 4244.14 686.161 4257.28 705.241 4263.86 731.776 4263.86 765.767L4263.86 933.636 4193.15 933.636 4193.15 774.425C4193.15 753.581 4190.19 738.991 4184.25 730.654 4178.32 722.316 4168.62 718.148 4155.15 718.148 4144.25 718.148 4134.71 720.713 4126.53 725.844 4118.36 730.974 4109.3 738.51 4099.36 748.451L4099.36 933.636 4028.65 933.636 4028.65 664.276 4086.37 664.276 4091.66 699.87 4093.1 699.87C4104.97 688.326 4117.96 678.385 4132.06 670.048 4146.17 661.711 4162.37 657.542 4180.65 657.542ZM3853.19 657.542C3875.96 657.542 3895.04 662.031 3910.43 671.01 3925.82 679.989 3937.36 693.296 3945.06 710.933 3952.76 728.57 3956.6 750.375 3956.6 776.349L3956.6 933.636 3898.88 933.636 3894.07 904.776 3891.67 904.776C3880.12 915.037 3867.62 923.535 3854.15 930.269 3840.68 937.003 3826.09 940.37 3810.38 940.37 3794.67 940.37 3780.8 936.923 3768.77 930.028 3756.75 923.134 3747.45 913.594 3740.88 901.409 3734.3 889.223 3731.01 875.435 3731.01 860.043 3731.01 831.503 3743.36 809.297 3768.05 793.424 3792.74 777.551 3832.02 766.729 3885.9 760.957 3885.58 751.978 3883.97 744.042 3881.09 737.147 3878.2 730.253 3873.47 724.721 3866.9 720.553 3860.32 716.384 3851.43 714.3 3840.2 714.3 3827.7 714.3 3815.35 716.705 3803.16 721.515 3790.98 726.325 3778.63 732.578 3766.13 740.274L3741.12 693.136C3751.7 686.402 3762.92 680.469 3774.79 675.339 3786.65 670.208 3799.16 665.959 3812.3 662.592 3825.45 659.225 3839.08 657.542 3853.19 657.542ZM3583.35 657.542C3608.04 657.542 3628.72 663.073 3645.39 674.136 3662.07 685.199 3674.66 700.431 3683.15 719.831 3691.65 739.232 3695.9 761.438 3695.9 786.45 3695.9 792.863 3695.58 799.036 3694.94 804.968 3694.3 810.901 3693.49 815.63 3692.53 819.158L3526.59 819.158C3528.51 833.588 3532.84 845.773 3539.57 855.714 3546.31 865.654 3554.97 873.11 3565.55 878.08 3576.13 883.051 3588.16 885.536 3601.62 885.536 3612.53 885.536 3622.79 884.013 3632.41 880.966 3642.03 877.92 3651.81 873.35 3661.75 867.258L3685.8 910.548C3672.65 919.526 3657.9 926.741 3641.55 932.193 3625.19 937.644 3608.68 940.37 3592 940.37 3566.99 940.37 3544.38 934.758 3524.18 923.535 3503.98 912.311 3487.87 896.118 3475.84 874.954 3463.82 853.79 3457.8 828.457 3457.8 798.956 3457.8 777.151 3461.25 757.59 3468.15 740.274 3475.04 722.958 3484.5 708.127 3496.52 695.781 3508.55 683.436 3522.02 673.976 3536.93 667.402 3551.84 660.829 3567.31 657.542 3583.35 657.542Z" stroke="#000000" stroke-width="3" stroke-linecap="butt" stroke-linejoin="round" stroke-miterlimit="10" stroke-opacity="1" fill="#EA4335" fill-rule="evenodd" fill-opacity="1"/><text fill="#000000" fill-opacity="0" font-family="Arial,Arial_MSFontService,sans-serif" font-size="282.828" direction="ltr" writing-mode="lr-tb" x="3457.8" y="905.016">ean</text><path d="M2267.99 1655.38 2349 1656.16 2348.31 1800.28 2764.21 1800.28 2764.21 1865.71 2267.21 1866.49 2267.79 1817.41 2267.21 1817.41ZM3026.77 1633.57 3107.79 1633.57 3107.79 1800.28 3511.31 1800.28 3511.31 1866.49 3026.77 1866.49 3026.77 1825.98 3026.77 1800.28ZM3807.37 1632.01 3807.37 1800.92 4204.66 1800.28 4204.66 1866.49 3725.57 1866.49 3726.02 1829.1 3725.57 1829.1 3726.35 1632.79ZM2831.98 1524.51 2831.2 1589.95 2188.53 1590.73 2188.53 1525.29ZM1622.94 1290.03 1622.94 1501.92 1961.02 1501.92 1961.8 1290.03ZM3107.01 1287.69C3086.24 1287.69 3067.54 1292.11 3050.92 1300.94 3034.3 1309.77 3021.32 1322.1 3011.97 1337.94 3002.62 1353.78 2997.95 1372.61 2997.95 1394.42 2997.95 1416.23 3002.62 1435.05 3011.97 1450.89 3021.32 1466.73 3034.3 1479.07 3050.92 1487.9 3067.54 1496.73 3086.24 1501.14 3107.01 1501.14 3127.78 1501.14 3146.48 1496.73 3163.1 1487.9 3179.72 1479.07 3192.83 1466.73 3202.44 1450.89 3212.04 1435.05 3216.85 1416.23 3216.85 1394.42 3216.85 1372.61 3212.04 1353.78 3202.44 1337.94 3192.83 1322.1 3179.72 1309.77 3163.1 1300.94 3146.48 1292.11 3127.78 1287.69 3107.01 1287.69ZM1543.48 1225.37 2041.26 1225.37 2040.48 1566.58 1833.22 1566.58 1832.56 1726.61 2116.04 1726.27 2115.26 1793.27 1471.03 1793.27 1471.81 1727.05 1751.54 1726.71 1752.2 1566.58 1542.7 1566.58ZM3941.36 1223.04 3941.36 1223.44 3985.76 1223.04C3985.76 1285.88 3972.52 1342.48 3946.03 1392.86 3919.54 1443.23 3881.5 1486.6 3831.91 1522.95 3782.31 1559.31 3722.72 1587.87 3653.13 1608.64L3618.85 1543.21C3678.05 1526.07 3728.56 1503.48 3770.37 1475.43 3812.17 1447.39 3843.98 1415.19 3865.79 1378.84 3882.15 1351.57 3892.38 1322.7 3896.47 1292.22L3896.76 1289.25 3649.23 1289.25 3649.23 1223.82ZM3107.01 1216.81C3142.84 1216.81 3175.04 1224.34 3203.61 1239.4 3232.17 1254.46 3254.76 1275.36 3271.38 1302.11 3288 1328.85 3296.31 1359.62 3296.31 1394.42 3296.31 1428.69 3288 1459.33 3271.38 1486.34 3254.76 1513.34 3232.17 1534.38 3203.61 1549.44 3175.04 1564.5 3142.84 1572.03 3107.01 1572.03 3071.18 1572.03 3038.98 1564.5 3010.41 1549.44 2981.85 1534.38 2959.26 1513.34 2942.64 1486.34 2926.02 1459.33 2917.71 1428.69 2917.71 1394.42 2917.71 1359.62 2926.02 1328.85 2942.64 1302.11 2959.26 1275.36 2981.85 1254.46 3010.41 1239.4 3038.98 1224.34 3071.18 1216.81 3107.01 1216.81ZM2753.3 1197.33 2752.53 1261.99 2349 1262.77 2348.34 1390.39 2759.54 1389.74 2758.76 1455.96 2267.99 1455.96 2267.99 1413.11 2267.99 1390.52 2267.99 1198.11ZM4094.82 1169.29 4176.61 1169.29 4176.61 1377.28 4277.11 1377.28 4277.11 1444.27 4176.61 1444.27 4176.61 1684.98 4094.82 1684.21ZM3409.26 1169.29 3491.06 1169.29 3491.06 1685.76 3409.26 1685.76Z" stroke="#000000" stroke-width="3" stroke-linecap="butt" stroke-linejoin="round" stroke-miterlimit="10" stroke-opacity="1" fill="#FFFFFF" fill-rule="evenodd" fill-opacity="1"/><text fill="#000000" fill-opacity="0" font-family="Arial,Arial_MSFontService,sans-serif" font-size="697.205" direction="ltr" writing-mode="lr-tb" x="1471.03" y="1779.34">모든인간</text><text fill="#747474" fill-opacity="1" font-family="Noto Sans KR,Noto Sans KR_MSFontService,sans-serif" font-style="normal" font-variant="normal" font-weight="400" font-stretch="normal" font-size="55" text-anchor="start" direction="ltr" writing-mode="lr-tb" unicode-bidi="normal" text-decoration="none" transform="matrix(1 0 0 1 106.879 1268)">Noto is a global font collection for writing </text><text fill="#747474" fill-opacity="1" font-family="Noto Sans KR,Noto Sans KR_MSFontService,sans-serif" font-style="normal" font-variant="normal" font-weight="400" font-stretch="normal" font-size="55" text-anchor="start" direction="ltr" writing-mode="lr-tb" unicode-bidi="normal" text-decoration="none" transform="matrix(1 0 0 1 106.879 1367)">in all modern and ancient languages. Noto </text><text fill="#747474" fill-opacity="1" font-family="Noto Sans KR,Noto Sans KR_MSFontService,sans-serif" font-style="normal" font-variant="normal" font-weight="400" font-stretch="normal" font-size="55" text-anchor="start" direction="ltr" writing-mode="lr-tb" unicode-bidi="normal" text-decoration="none" transform="matrix(1 0 0 1 106.879 1466)">Sans KR is an unmodulated (“sans serif”) </text><text fill="#747474" fill-opacity="1" font-family="Noto Sans KR,Noto Sans KR_MSFontService,sans-serif" font-style="normal" font-variant="normal" font-weight="400" font-stretch="normal" font-size="55" text-anchor="start" direction="ltr" writing-mode="lr-tb" unicode-bidi="normal" text-decoration="none" transform="matrix(1 0 0 1 106.879 1565)">design for the</text><text fill="#747474" fill-opacity="1" font-family="Noto Sans KR,Noto Sans KR_MSFontService,sans-serif" font-style="normal" font-variant="normal" font-weight="400" font-stretch="normal" font-size="55" text-anchor="start" direction="ltr" writing-mode="lr-tb" unicode-bidi="normal" text-decoration="none" transform="matrix(1 0 0 1 483.744 1565)"> </text><text fill="#747474" fill-opacity="1" font-family="Noto Sans KR,Noto Sans KR_MSFontService,sans-serif" font-style="normal" font-variant="normal" font-weight="400" font-stretch="normal" font-size="55" text-anchor="start" direction="ltr" writing-mode="lr-tb" unicode-bidi="normal" text-decoration="none" transform="matrix(1 0 0 1 498.181 1565)">Korean</text><text fill="#747474" fill-opacity="1" font-family="Noto Sans KR,Noto Sans KR_MSFontService,sans-serif" font-style="normal" font-variant="normal" font-weight="400" font-stretch="normal" font-size="55" text-anchor="start" direction="ltr" writing-mode="lr-tb" unicode-bidi="normal" text-decoration="none" transform="matrix(1 0 0 1 694.233 1565)"> </text><text fill="#747474" fill-opacity="1" font-family="Noto Sans KR,Noto Sans KR_MSFontService,sans-serif" font-style="normal" font-variant="normal" font-weight="400" font-stretch="normal" font-size="55" text-anchor="start" direction="ltr" writing-mode="lr-tb" unicode-bidi="normal" text-decoration="none" transform="matrix(1 0 0 1 708.671 1565)">language </text><text fill="#747474" fill-opacity="1" font-family="Noto Sans KR,Noto Sans KR_MSFontService,sans-serif" font-style="normal" font-variant="normal" font-weight="400" font-stretch="normal" font-size="55" text-anchor="start" direction="ltr" writing-mode="lr-tb" unicode-bidi="normal" text-decoration="none" transform="matrix(1 0 0 1 106.879 1664)">using</text><text fill="#747474" fill-opacity="1" font-family="Noto Sans KR,Noto Sans KR_MSFontService,sans-serif" font-style="normal" font-variant="normal" font-weight="400" font-stretch="normal" font-size="55" text-anchor="start" direction="ltr" writing-mode="lr-tb" unicode-bidi="normal" text-decoration="none" transform="matrix(1 0 0 1 254.691 1664)"> </text><text fill="#747474" fill-opacity="1" font-family="Noto Sans KR,Noto Sans KR_MSFontService,sans-serif" font-style="normal" font-variant="normal" font-weight="400" font-stretch="normal" font-size="55" text-anchor="start" direction="ltr" writing-mode="lr-tb" unicode-bidi="normal" text-decoration="none" transform="matrix(1 0 0 1 269.129 1664)">Hangul</text><text fill="#747474" fill-opacity="1" font-family="Noto Sans KR,Noto Sans KR_MSFontService,sans-serif" font-style="normal" font-variant="normal" font-weight="400" font-stretch="normal" font-size="55" text-anchor="start" direction="ltr" writing-mode="lr-tb" unicode-bidi="normal" text-decoration="none" transform="matrix(1 0 0 1 464.608 1664)"> </text><text fill="#747474" fill-opacity="1" font-family="Noto Sans KR,Noto Sans KR_MSFontService,sans-serif" font-style="normal" font-variant="normal" font-weight="400" font-stretch="normal" font-size="55" text-anchor="start" direction="ltr" writing-mode="lr-tb" unicode-bidi="normal" text-decoration="none" transform="matrix(1 0 0 1 479.046 1664)">and the</text><text fill="#747474" fill-opacity="1" font-family="Noto Sans KR,Noto Sans KR_MSFontService,sans-serif" font-style="normal" font-variant="normal" font-weight="400" font-stretch="normal" font-size="55" text-anchor="start" direction="ltr" writing-mode="lr-tb" unicode-bidi="normal" text-decoration="none" transform="matrix(1 0 0 1 687.816 1664)"> </text><text fill="#747474" fill-opacity="1" font-family="Noto Sans KR,Noto Sans KR_MSFontService,sans-serif" font-style="normal" font-variant="normal" font-weight="400" font-stretch="normal" font-size="55" text-anchor="start" direction="ltr" writing-mode="lr-tb" unicode-bidi="normal" text-decoration="none" transform="matrix(1 0 0 1 702.254 1664)">Korean Hanja</text><text fill="#747474" fill-opacity="1" font-family="Noto Sans KR,Noto Sans KR_MSFontService,sans-serif" font-style="normal" font-variant="normal" font-weight="400" font-stretch="normal" font-size="55" text-anchor="start" direction="ltr" writing-mode="lr-tb" unicode-bidi="normal" text-decoration="none" transform="matrix(1 0 0 1 1072.01 1664)"> </text><text fill="#747474" fill-opacity="1" font-family="Noto Sans KR,Noto Sans KR_MSFontService,sans-serif" font-style="normal" font-variant="normal" font-weight="400" font-stretch="normal" font-size="55" text-anchor="start" direction="ltr" writing-mode="lr-tb" unicode-bidi="normal" text-decoration="none" transform="matrix(1 0 0 1 1086.45 1664)">scripts. </text><text fill="#747474" fill-opacity="1" font-family="Noto Sans KR,Noto Sans KR_MSFontService,sans-serif" font-style="normal" font-variant="normal" font-weight="400" font-stretch="normal" font-size="55" text-anchor="start" direction="ltr" writing-mode="lr-tb" unicode-bidi="normal" text-decoration="none" transform="matrix(1 0 0 1 106.879 1763)">It also supports</text><text fill="#747474" fill-opacity="1" font-family="Noto Sans KR,Noto Sans KR_MSFontService,sans-serif" font-style="normal" font-variant="normal" font-weight="400" font-stretch="normal" font-size="55" text-anchor="start" direction="ltr" writing-mode="lr-tb" unicode-bidi="normal" text-decoration="none" transform="matrix(1 0 0 1 532.098 1763)"> </text><text fill="#747474" fill-opacity="1" font-family="Noto Sans KR,Noto Sans KR_MSFontService,sans-serif" font-style="normal" font-variant="normal" font-weight="400" font-stretch="normal" font-size="55" text-anchor="start" direction="ltr" writing-mode="lr-tb" unicode-bidi="normal" text-decoration="none" transform="matrix(1 0 0 1 546.535 1763)">Hiragana, Katakana, Latin, </text><text fill="#747474" fill-opacity="1" font-family="Noto Sans KR,Noto Sans KR_MSFontService,sans-serif" font-style="normal" font-variant="normal" font-weight="400" font-stretch="normal" font-size="55" text-anchor="start" direction="ltr" writing-mode="lr-tb" unicode-bidi="normal" text-decoration="none" transform="matrix(1 0 0 1 106.879 1862)">Cyrillic</text><text fill="#747474" fill-opacity="1" font-family="Noto Sans KR,Noto Sans KR_MSFontService,sans-serif" font-style="normal" font-variant="normal" font-weight="400" font-stretch="normal" font-size="55" text-anchor="start" direction="ltr" writing-mode="lr-tb" unicode-bidi="normal" text-decoration="none" transform="matrix(1 0 0 1 295.139 1862)"> </text><text fill="#747474" fill-opacity="1" font-family="Noto Sans KR,Noto Sans KR_MSFontService,sans-serif" font-style="normal" font-variant="normal" font-weight="400" font-stretch="normal" font-size="55" text-anchor="start" direction="ltr" writing-mode="lr-tb" unicode-bidi="normal" text-decoration="none" transform="matrix(1 0 0 1 309.577 1862)">and</text><text fill="#747474" fill-opacity="1" font-family="Noto Sans KR,Noto Sans KR_MSFontService,sans-serif" font-style="normal" font-variant="normal" font-weight="400" font-stretch="normal" font-size="55" text-anchor="start" direction="ltr" writing-mode="lr-tb" unicode-bidi="normal" text-decoration="none" transform="matrix(1 0 0 1 414.191 1862)"> </text><text fill="#747474" fill-opacity="1" font-family="Noto Sans KR,Noto Sans KR_MSFontService,sans-serif" font-style="normal" font-variant="normal" font-weight="400" font-stretch="normal" font-size="55" text-anchor="start" direction="ltr" writing-mode="lr-tb" unicode-bidi="normal" text-decoration="none" transform="matrix(1 0 0 1 428.629 1862)">Greek. It has multiple weights.</text><text fill="#747474" fill-opacity="1" font-family="Noto Sans KR,Noto Sans KR_MSFontService,sans-serif" font-style="normal" font-variant="normal" font-weight="400" font-stretch="normal" font-size="55" text-anchor="start" direction="ltr" writing-mode="lr-tb" unicode-bidi="normal" text-decoration="none" transform="matrix(1 0 0 1 1257.75 1862)"> </text></g></g></svg>