<svg width="4290" height="1219" xmlns="http://www.w3.org/2000/svg" xmlns:xlink="http://www.w3.org/1999/xlink" xml:space="preserve" overflow="hidden"><g transform="translate(-55 -756)"><g><path d="M1747.21 1285 1660.44 1300.07C1635.14 1303.52 1615.08 1310.19 1600.27 1320.07 1585.46 1329.95 1574.57 1345.15 1567.6 1365.66 1561.26 1384.32 1560.98 1398.36 1566.78 1407.81 1572.57 1417.26 1584.98 1421.98 1604.01 1421.98 1617.03 1421.98 1630.28 1419.2 1643.76 1413.63 1657.24 1408.07 1670.03 1400.6 1682.11 1391.22 1694.19 1381.85 1704.93 1370.99 1714.34 1358.66 1723.75 1346.33 1730.66 1333.69 1735.05 1320.76ZM2922.65 1135.08C2911.69 1135.08 2900.73 1137.47 2889.76 1142.25 2878.8 1147.03 2868.24 1154 2858.09 1163.15 2847.94 1172.31 2838.56 1183.29 2829.93 1196.09 2821.31 1208.89 2814.28 1223.31 2808.83 1239.34L2783.5 1313.92C2778.75 1327.88 2775.23 1341.46 2772.95 1354.64 2770.67 1367.81 2770.5 1379.42 2772.46 1389.46 2774.41 1399.5 2779.1 1407.43 2786.52 1413.25 2793.95 1419.07 2805.3 1421.98 2820.58 1421.98 2843.13 1421.98 2866.04 1410.74 2889.29 1388.27 2912.54 1365.79 2932.91 1328.83 2950.39 1277.39 2967.97 1225.66 2974.09 1189 2968.76 1167.43 2963.44 1145.87 2948.07 1135.08 2922.65 1135.08ZM2116.42 1135.08C2093.78 1135.08 2071.53 1146.22 2049.66 1168.49 2027.79 1190.76 2008.13 1227.57 1990.68 1278.91 1972.89 1331.25 1966.3 1368.18 1970.92 1389.7 1975.53 1411.22 1990.52 1421.98 2015.87 1421.98 2026.75 1421.98 2037.78 1419.59 2048.96 1414.81 2060.14 1410.04 2070.93 1403.07 2081.33 1393.9 2091.73 1384.73 2101.46 1373.6 2110.52 1360.5 2119.57 1347.41 2126.81 1332.89 2132.24 1316.96L2157.58 1242.38C2162.23 1228.7 2165.56 1215.37 2167.57 1202.39 2169.58 1189.41 2169.26 1177.91 2166.6 1167.89 2163.94 1157.87 2158.72 1149.89 2150.93 1143.97 2143.15 1138.04 2131.64 1135.08 2116.42 1135.08ZM3157.83 1077.24 3242.48 1077.24 3246.52 1348.85 3425.31 1077.24 3505.61 1077.24 3234.33 1477.74C3218.63 1501.06 3203.99 1520.88 3190.42 1537.2 3176.84 1553.52 3163.15 1567.13 3149.36 1578.04 3135.56 1588.94 3121.67 1596.86 3107.66 1601.79 3093.66 1606.72 3078.79 1609.18 3063.04 1609.18 3053.78 1609.18 3044.8 1608.67 3036.09 1607.63 3027.38 1606.6 3016.37 1603.98 3003.08 1599.78L3024.97 1535.37 3043.01 1535.37C3050.13 1538.26 3056.27 1540.51 3061.43 1542.1 3066.6 1543.7 3071.16 1544.5 3075.14 1544.5 3088.12 1544.5 3099.46 1541.69 3109.14 1536.07 3118.83 1530.46 3130.72 1517.54 3144.8 1497.33L3172.2 1453.7ZM2416.29 1077.24 2585.99 1077.24 2471.94 1412.85 2581.52 1412.85 2558.76 1479.81 2252.84 1479.81 2275.6 1412.85 2392.03 1412.85 2483.33 1144.21 2393.53 1144.21ZM1425.53 1068.87C1442.88 1068.87 1459.47 1071 1475.28 1075.25 1491.1 1079.5 1505.27 1086.89 1517.8 1097.42L1492.86 1170.85 1473.77 1170.85C1464.13 1162.78 1452.41 1156.19 1438.61 1151.1 1424.81 1146 1410.23 1143.45 1394.87 1143.45 1377.93 1143.45 1361.76 1147.09 1346.36 1154.38 1330.95 1161.66 1316.47 1171.61 1302.92 1184.21 1289.37 1196.81 1277.37 1211.35 1266.92 1227.83 1256.46 1244.32 1248.17 1261.6 1242.02 1279.67L1174.01 1479.81 1094.86 1479.81 1231.68 1077.24 1304.22 1077.24 1286.59 1135.05 1288.88 1132.32C1290.01 1131.06 1291.25 1129.77 1292.6 1128.45 1303.38 1117.82 1315.77 1108.08 1329.79 1099.22 1343.81 1090.37 1358.97 1083.09 1375.25 1077.41 1391.54 1071.72 1408.3 1068.87 1425.53 1068.87ZM1752.43 1068.11C1799.51 1068.11 1830.51 1082.06 1845.43 1109.95 1860.35 1137.84 1859.53 1176.15 1842.97 1224.88L1756.34 1479.81 1682.08 1479.81 1692.79 1443.53 1685.97 1449.38C1673.32 1459.64 1659.42 1467.97 1644.29 1474.36 1620.08 1484.59 1595.68 1489.71 1571.1 1489.71 1532.05 1489.71 1504.54 1479.25 1488.56 1458.33 1472.57 1437.41 1470.92 1408.3 1483.59 1370.99 1496.05 1334.35 1515.88 1305.37 1543.1 1284.05 1570.33 1262.73 1605.79 1248.62 1649.5 1241.73L1764.98 1223.74 1766.66 1218.79C1776.84 1188.86 1778.44 1167.93 1771.47 1156.01 1764.5 1144.09 1749.2 1138.12 1725.59 1138.12 1705.19 1138.12 1684.74 1140.93 1664.26 1146.55 1643.77 1152.18 1620.78 1162.56 1595.27 1177.7L1576.68 1177.7 1600.66 1107.16C1628.66 1093.2 1654.32 1083.2 1677.64 1077.17 1700.95 1071.13 1725.88 1068.11 1752.43 1068.11ZM2954.8 1067.35C2984.27 1067.35 3006.45 1073.3 3021.34 1085.21 3036.23 1097.11 3045.73 1113.02 3049.85 1132.94 3053.97 1152.86 3053.83 1175.39 3049.44 1200.52 3045.04 1225.65 3038.15 1252.04 3028.75 1279.67 3020.56 1303.76 3009.77 1328.17 2996.38 1352.89 2982.99 1377.61 2967.12 1399.87 2948.78 1419.66 2930.43 1439.46 2909.79 1455.71 2886.85 1468.39 2863.92 1481.08 2838.73 1487.42 2811.28 1487.42 2790.09 1487.42 2772.23 1482.39 2757.69 1472.32 2750.42 1467.29 2744.58 1461.59 2740.15 1455.23L2737.12 1450.36 2683.14 1609.18 2604.76 1609.18 2785.54 1077.24 2861.94 1077.24 2853.94 1105.19 2859.72 1100.81C2869.46 1093.75 2879.61 1087.79 2890.18 1082.92 2900.75 1078.06 2911.75 1074.25 2923.17 1071.49 2934.59 1068.73 2945.13 1067.35 2954.8 1067.35ZM2265.42 925.045 2343.81 925.045 2155.27 1479.81 2078.79 1479.81 2086.63 1452.44 2081.62 1456.24C2071.77 1463.39 2061.17 1469.45 2049.85 1474.41 2038.52 1479.37 2027.17 1483.16 2015.8 1485.78 2004.44 1488.4 1993.74 1489.71 1983.72 1489.71 1954.15 1489.71 1932.16 1483.5 1917.75 1471.07 1903.33 1458.65 1894.19 1442.46 1890.33 1422.48 1886.47 1402.51 1886.86 1380 1891.5 1354.94 1896.15 1329.88 1903.08 1303.78 1912.31 1276.63 1920.22 1253.35 1930.65 1229.53 1943.59 1205.17 1956.54 1180.81 1971.79 1158.64 1989.36 1138.67 2006.92 1118.69 2027.14 1102.2 2050.02 1089.17 2072.89 1076.15 2098.13 1069.63 2125.72 1069.63 2146.71 1069.63 2165.17 1074.68 2181.09 1084.76 2191.04 1091.06 2198.5 1098.39 2203.46 1106.75L2203.59 1106.99ZM2602.9 895.366C2618.81 895.366 2630.59 901.154 2638.23 912.732 2645.87 924.309 2646.99 938.053 2641.58 953.963 2636.03 970.308 2625.47 984.288 2609.91 995.901 2594.35 1007.51 2578.66 1013.32 2562.82 1013.32 2546.9 1013.32 2535.12 1007.53 2527.48 995.96 2519.84 984.387 2518.81 970.388 2524.39 953.963 2529.83 937.974 2540.27 924.21 2555.73 912.672 2571.19 901.135 2586.91 895.366 2602.9 895.366Z" stroke="#000000" stroke-width="3" stroke-linecap="butt" stroke-linejoin="round" stroke-miterlimit="10" stroke-opacity="1" fill="#00A7E9" fill-rule="evenodd" fill-opacity="1"/><text fill="#000000" fill-opacity="0" font-family="Arial,Arial_MSFontService,sans-serif" font-size="713.818" direction="ltr" writing-mode="lr-tb" x="1094.86" y="1519.96">radipy</text><text fill="#00A7E9" fill-opacity="1" font-family="D2Coding,D2Coding_MSFontService,sans-serif" font-style="normal" font-variant="normal" font-weight="700" font-stretch="normal" font-size="138" text-anchor="start" direction="ltr" writing-mode="lr-tb" unicode-bidi="normal" text-decoration="none" transform="matrix(1 0 0 1 163.281 1854)">RADIPY</text><text fill="#747474" fill-opacity="1" font-family="D2Coding,D2Coding_MSFontService,sans-serif" font-style="oblique" font-variant="normal" font-weight="400" font-stretch="normal" font-size="138" text-anchor="start" direction="ltr" writing-mode="lr-tb" unicode-bidi="normal" text-decoration="none" transform="matrix(1 0 0 1 661.719 1854)">A feature</text><text fill="#747474" fill-opacity="1" font-family="D2Coding,D2Coding_MSFontService,sans-serif" font-style="oblique" font-variant="normal" font-weight="400" font-stretch="normal" font-size="138" text-anchor="start" direction="ltr" writing-mode="lr-tb" unicode-bidi="normal" text-decoration="none" transform="matrix(1 0 0 1 1280.47 1854)">-</text><text fill="#747474" fill-opacity="1" font-family="D2Coding,D2Coding_MSFontService,sans-serif" font-style="oblique" font-variant="normal" font-weight="400" font-stretch="normal" font-size="138" text-anchor="start" direction="ltr" writing-mode="lr-tb" unicode-bidi="normal" text-decoration="none" transform="matrix(1 0 0 1 1349.22 1854)">rich radiko streaming/downloading platform</text></g></g></svg>