<svg width="651" height="734" xmlns="http://www.w3.org/2000/svg" xmlns:xlink="http://www.w3.org/1999/xlink" xml:space="preserve" overflow="hidden"><g transform="translate(-3157 -1122)"><g><path d="M3217 1854 3427.56 1490 3541 1490 3330.44 1854Z" fill="#FBBC05" fill-rule="evenodd" fill-opacity="1"/><rect x="0" y="0" width="113" height="364" fill="#34A853" fill-opacity="1" transform="matrix(-1 0 0 1 3541 1490)"/><path d="M3427 1854 3638.21 1490 3752 1490 3540.79 1854Z" fill="#4285F4" fill-rule="evenodd" fill-opacity="1"/><path d="M0 364 210.558 0 324 0 113.442 364Z" fill="#FBBC05" fill-rule="evenodd" fill-opacity="1" transform="matrix(1 0 0 -1 3217 1490)"/><rect x="3428" y="1126" width="113" height="364" fill="#34A853" fill-opacity="1"/><path d="M0 364 211.208 0 325 0 113.792 364Z" fill="#4285F4" fill-rule="evenodd" fill-opacity="1" transform="matrix(1 0 0 -1 3427 1490)"/><rect x="3161" y="1486" width="647" height="12" fill="#8A8D92" fill-opacity="1"/></g></g></svg>