<svg width="541" height="734" xmlns="http://www.w3.org/2000/svg" xmlns:xlink="http://www.w3.org/1999/xlink" xml:space="preserve" overflow="hidden"><g transform="translate(-2919 -1122)"><g><path d="M2923 1854 3134.21 1490 3248 1490 3036.79 1854Z" fill="#FBBC05" fill-rule="evenodd" fill-opacity="1"/><rect x="0" y="0" width="114" height="364" fill="#34A853" fill-opacity="1" transform="matrix(-1 0 0 1 3248 1490)"/><path d="M3134 1854 3344.56 1490 3458 1490 3247.44 1854Z" fill="#4285F4" fill-rule="evenodd" fill-opacity="1"/><path d="M0 364 211.208 0 325 0 113.792 364Z" fill="#FBBC05" fill-rule="evenodd" fill-opacity="1" transform="matrix(1 0 0 -1 2923 1490)"/><rect x="3134" y="1126" width="114" height="364" fill="#34A853" fill-opacity="1"/><path d="M0 364 210.558 0 324.001 0 113.442 364Z" fill="#4285F4" fill-rule="evenodd" fill-opacity="1" transform="matrix(1 0 0 -1 3134 1490)"/></g></g></svg>